<svg xmlns="http://www.w3.org/2000/svg" viewBox="0 0 886.25 228.58"><defs><style>.cls-1{fill:#212c55;}.cls-2{fill:#0082c2;}.cls-3,.cls-4,.cls-5{fill:none;}.cls-3{stroke:#1081c5;stroke-width:4px;}.cls-3,.cls-4{stroke-linecap:round;stroke-linejoin:round;}.cls-4{stroke:#212c55;stroke-width:4.25px;}</style></defs><title>Recurso 1Argeflex</title><g id="Capa_2" data-name="Capa 2"><g id="Capa_1-2" data-name="Capa 1"><path class="cls-1" d="M222.32,62.46a51.45,51.45,0,0,0-12-6,41.11,41.11,0,0,0-13.79-2.58,49.5,49.5,0,0,0-15.71,2.71,47.18,47.18,0,0,0-15,8.4c-.42.34-.82.69-1.22,1,0,0-14.21,11.28-14.21,29.42v61.42c0,4.43,2.92,7.53,7.19,7.53s7.1-3.1,7.1-7.53V103.11c0-8.18,1.67-14.94,5-20.09A29.29,29.29,0,0,1,181.78,71.8a34.85,34.85,0,0,1,15-3.57c6.81,0,13.38,2.7,20.08,8.24a7.36,7.36,0,0,0,4.91,1.92,7.11,7.11,0,0,0,5.41-2.47,6.2,6.2,0,0,0,1.7-4.38c0-4-3.5-7-6.56-9.08"/><path class="cls-1" d="M528.39,18.36a38.07,38.07,0,0,0-18.21,4.24,30.32,30.32,0,0,0-12.62,12.89c-2.89,5.49-4.35,12.12-4.35,19.72V156.93c0,4.43,2.92,7.53,7.19,7.53s7.11-3.1,7.11-7.53v-80h18a6.82,6.82,0,0,0,7.19-7.1c0-4-3-6.78-7.19-6.78h-18v-7.8A28.71,28.71,0,0,1,509.93,43a16.76,16.76,0,0,1,6.69-7.52,21.85,21.85,0,0,1,11.44-2.75c2.8,0,4.9-.89,6.25-2.63a7,7,0,0,0,1.61-4.48,8,8,0,0,0-1.14-3.95c-.71-1.24-2.48-3.32-6.39-3.32"/><path class="cls-1" d="M558.33,22.86a6.81,6.81,0,0,0-5.72,2.9,8.33,8.33,0,0,0-1.39,4.79v126.3a8.09,8.09,0,0,0,1.46,4.84,7.24,7.24,0,0,0,11.39,0,8.15,8.15,0,0,0,1.45-4.84V30.55a8.29,8.29,0,0,0-1.4-4.8,6.81,6.81,0,0,0-5.79-2.89"/><path class="cls-2" d="M871.74,151.77v-.08c0-.41,0-.89,0-1.43a16.84,16.84,0,0,0-.82-4.82v-.05a15.91,15.91,0,0,0-14.16-10.59l-.19,0h-1.07l-.12,0a14.84,14.84,0,1,0,8,27.85l.21-.11.19-.11a4.37,4.37,0,0,0,2-3.16,4.27,4.27,0,0,0-.89-3.18,4.31,4.31,0,0,0-2.88-1.62l-.51,0a4.51,4.51,0,0,0-2,.47,11.12,11.12,0,0,1-3.27.92,6.22,6.22,0,0,1,0-12.44,7.58,7.58,0,0,1,4.16,1.46,1.57,1.57,0,0,0,1,.34,1.55,1.55,0,0,0,1.54-1.54,1.54,1.54,0,0,0-.56-1.19l-.07-.05-.05,0h0a10.09,10.09,0,0,0-6-2.05,9.3,9.3,0,0,0,0,18.6,8.62,8.62,0,0,0,1.24-.09,10.88,10.88,0,0,0,3.07-1l.39-.17.09,0,.05,0,.08,0h.44a1.29,1.29,0,0,1,.86.49,1.18,1.18,0,0,1,.23.87,1.62,1.62,0,0,1-.81,1,10,10,0,0,1-3.46,1.24,11.42,11.42,0,0,1-2.18.21,11.76,11.76,0,0,1-.13-23.51,12.72,12.72,0,0,1,12.1,9.34v0l.06.24a16.61,16.61,0,0,1,.34,3.46c0,3.38,0,11.84,0,12a1.54,1.54,0,1,0,3.08,0Z"/><path class="cls-1" d="M115.31,71.86Q113.7,70,111.94,68.3A60.43,60.43,0,0,0,93.5,56,55,55,0,0,0,71.85,51.6a54.33,54.33,0,0,0-28.1,7.89A60.75,60.75,0,0,0,22.58,80.56a55,55,0,0,0-8.08,28.8,54.27,54.27,0,0,0,8.09,28.69,60.35,60.35,0,0,0,21.18,20.86,54.83,54.83,0,0,0,28.08,7.8,55.69,55.69,0,0,0,21.71-4.38A59.94,59.94,0,0,0,112,150.18q1.75-1.69,3.34-3.5v10.17c0,4.48,2.93,7.61,7.11,7.61h.08c4.19,0,7.11-3.13,7.11-7.61V109.36c.85-20.5-14.3-37.5-14.3-37.5m-43.54-6a40.81,40.81,0,0,1,20.82,5.91A48,48,0,0,1,109.1,87.9a39.41,39.41,0,0,1,6.21,21.46,41.16,41.16,0,0,1-5.89,21.42,44.57,44.57,0,0,1-16,15.79,42.41,42.41,0,0,1-21.63,5.84,40.57,40.57,0,0,1-20.9-5.86A46.3,46.3,0,0,1,34.8,130.66a40.36,40.36,0,0,1-6-21.3,41.24,41.24,0,0,1,6-21.61,46,46,0,0,1,16.06-16,40.57,40.57,0,0,1,20.9-5.86"/><path class="cls-1" d="M667.21,59.77a56.1,56.1,0,0,0-57.86-.27,58.65,58.65,0,0,0-20.78,21.14,56.62,56.62,0,0,0-7.74,28.8,55.82,55.82,0,0,0,7.75,28.67A58.09,58.09,0,0,0,609.43,159a58,58,0,0,0,50.24,3.72,66.25,66.25,0,0,0,17.4-10.7l.13-.12a7.64,7.64,0,0,0,2.58-5.66,6.59,6.59,0,0,0-1.93-4.69l-.16-.16c-2.53-2.53-6.91-2.41-9.7-.13a92.46,92.46,0,0,1-8.33,5.93,38.21,38.21,0,0,1-9,3.81,44,44,0,0,1-12.6,1.63,41.35,41.35,0,0,1-21.43-5.86,44.22,44.22,0,0,1-15.74-15.86,41.66,41.66,0,0,1-5.59-17.23H688.5a6.84,6.84,0,0,0,7.19-7.1v-.33c0-8.64-2.59-17.31-7.7-25.76a61.43,61.43,0,0,0-20.78-20.67M596.3,99.42a43.34,43.34,0,0,1,6.25-14.09A44.71,44.71,0,0,1,618,71.11a41.37,41.37,0,0,1,41.41.7A48.07,48.07,0,0,1,675.07,87a42,42,0,0,1,5.52,12.45Z"/><path class="cls-1" d="M449.42,59.77a56.1,56.1,0,0,0-57.86-.27,58.81,58.81,0,0,0-20.78,21.14,56.72,56.72,0,0,0-7.74,28.8,55.82,55.82,0,0,0,7.75,28.67A58.09,58.09,0,0,0,391.64,159a58,58,0,0,0,50.24,3.72,66.08,66.08,0,0,0,17.4-10.7l.13-.12a7.64,7.64,0,0,0,2.58-5.66,6.58,6.58,0,0,0-1.92-4.69l-.17-.16c-2.53-2.53-6.91-2.41-9.7-.13a91.06,91.06,0,0,1-8.33,5.93,38,38,0,0,1-9,3.81,44,44,0,0,1-12.6,1.63,41.29,41.29,0,0,1-21.42-5.86,44.25,44.25,0,0,1-15.75-15.86,41.66,41.66,0,0,1-5.59-17.23h93.17a6.84,6.84,0,0,0,7.19-7.1v-.33c0-8.64-2.59-17.31-7.7-25.76a61.43,61.43,0,0,0-20.78-20.67M378.51,99.42a43.77,43.77,0,0,1,6.25-14.09,44.71,44.71,0,0,1,15.42-14.22,41.39,41.39,0,0,1,41.42.7A47.94,47.94,0,0,1,457.28,87a42,42,0,0,1,5.52,12.45Z"/><line class="cls-3" x1="790.8" y1="171.54" x2="493.21" y2="171.54"/><path class="cls-2" d="M322.39,137a42.68,42.68,0,0,1-32.09,13.82c-1.27,0-2.53-.07-3.78-.17-1.46.1-2.94.17-4.42.17a65.48,65.48,0,0,1-43.21-16.22c.61,1.15,1.27,2.29,2,3.41a56,56,0,0,0,21.37,20A60.54,60.54,0,0,0,312.42,161a55.62,55.62,0,0,0,18.11-11.64c.92-.89,1.81-1.8,2.65-2.74A50.68,50.68,0,0,1,330,159.3a44.38,44.38,0,0,1-9.51,15,29,29,0,0,1-12.22,7.68,45.5,45.5,0,0,1-12.62,1.54,59.27,59.27,0,0,1-11.75-1.15,38.81,38.81,0,0,1-9.79-3.23c-3.86-1.77-7.25-1-9.47,1.76l-.29.39a6.31,6.31,0,0,0-1.3,4c0,3.74,2.71,6.63,8.05,8.6a64.49,64.49,0,0,0,12.5,3,85,85,0,0,0,12.13,1,60.84,60.84,0,0,0,8.28-.54,45,45,0,0,0,21.79-9.21,54.94,54.94,0,0,0,16-20.21,64.93,64.93,0,0,0,6-28.3V85.12A65.6,65.6,0,0,1,322.39,137"/><path class="cls-1" d="M340.62,52.6a7.56,7.56,0,0,0-1.36.12A6.93,6.93,0,0,0,335.19,55a7.61,7.61,0,0,0-1.85,5.17V71.51c-1.06-1.2-2.19-2.36-3.37-3.49a61,61,0,0,0-18.28-12,54.06,54.06,0,0,0-21.31-4.39,55.73,55.73,0,0,0-28.53,7.79A59.83,59.83,0,0,0,240.7,80.18a53.68,53.68,0,0,0-8,28.26,55.5,55.5,0,0,0,6.19,26.17,65.48,65.48,0,0,0,43.21,16.22c1.48,0,3-.07,4.42-.17A46.4,46.4,0,0,1,269,145.73,40.34,40.34,0,0,1,253,131.13c-4-6.31-6-13.94-6-22.69a41.69,41.69,0,0,1,5.67-21.14A42.88,42.88,0,0,1,290.3,65.9a40,40,0,0,1,19.82,5.25,47.16,47.16,0,0,1,15.72,14.28,43.08,43.08,0,0,1,7.5,18.84v8.51a42,42,0,0,1-6.85,19,43.43,43.43,0,0,1-4.1,5.22,65.6,65.6,0,0,0,25.42-51.89v-25c0-4.43-3-7.52-7.19-7.52"/><path class="cls-2" d="M762.28,160.14a54.27,54.27,0,1,1,54.27-54.27,54.32,54.32,0,0,1-54.27,54.27m0-104.82a50.56,50.56,0,1,0,50.55,50.55,50.61,50.61,0,0,0-50.55-50.55"/><path class="cls-2" d="M762.28,136.29a30.42,30.42,0,1,1,30.42-30.42,30.46,30.46,0,0,1-30.42,30.42m0-57.12a26.7,26.7,0,1,0,26.7,26.7,26.73,26.73,0,0,0-26.7-26.7"/><path class="cls-1" d="M713.13,155h0a1.85,1.85,0,0,1,0-2.63L808.8,56.72a1.86,1.86,0,1,1,2.63,2.63L715.76,155a1.85,1.85,0,0,1-2.63,0"/><path class="cls-4" d="M713.13,155h0a1.85,1.85,0,0,1,0-2.63L808.8,56.72a1.86,1.86,0,1,1,2.63,2.63L715.76,155A1.85,1.85,0,0,1,713.13,155Z"/><path class="cls-1" d="M845,191.24,711.56,57.76a1.86,1.86,0,0,1,2.63-2.63L847.66,188.61a1.86,1.86,0,1,1-2.63,2.63"/><path class="cls-4" d="M845,191.24,711.56,57.76a1.86,1.86,0,0,1,2.63-2.63L847.66,188.61a1.86,1.86,0,1,1-2.63,2.63Z"/><rect class="cls-5" width="886.25" height="228.58"/><path class="cls-1" d="M493.21,180.25h6.58a12.65,12.65,0,0,1,2.59.25,5.94,5.94,0,0,1,2.14.86A4.39,4.39,0,0,1,506,183a5.66,5.66,0,0,1,.54,2.62,6.09,6.09,0,0,1-.5,2.6,4.2,4.2,0,0,1-1.38,1.67,5.56,5.56,0,0,1-2.07.89,12.52,12.52,0,0,1-2.6.26h-2.85V198h-3.9Zm3.9,7.5h2.6a4.74,4.74,0,0,0,1-.1,2.74,2.74,0,0,0,.88-.34,1.76,1.76,0,0,0,.62-.65,2,2,0,0,0,.24-1,1.74,1.74,0,0,0-.31-1.09,2.09,2.09,0,0,0-.8-.64,3.43,3.43,0,0,0-1.09-.29c-.4,0-.78-.06-1.15-.06h-2Z"/><path class="cls-1" d="M509.88,180.25h6.86a12.48,12.48,0,0,1,2.56.26,6.12,6.12,0,0,1,2.12.88,4.39,4.39,0,0,1,1.45,1.65,5.55,5.55,0,0,1,.54,2.59,5.1,5.1,0,0,1-1,3.18,4.36,4.36,0,0,1-2.84,1.67l4.5,7.47h-4.68l-3.7-7.07h-1.92V198h-3.91Zm3.91,7.33h2.3c.34,0,.72,0,1.11,0a3.5,3.5,0,0,0,1.06-.23,1.83,1.83,0,0,0,.79-.58,1.81,1.81,0,0,0,.31-1.13,1.86,1.86,0,0,0-.27-1.07,1.84,1.84,0,0,0-.71-.62,3.06,3.06,0,0,0-1-.28,8.06,8.06,0,0,0-1.07-.08h-2.55Z"/><path class="cls-1" d="M527.16,180.25h12v3.6h-8.12v3.3h7.68v3.6h-7.68v3.6h8.57V198H527.16Z"/><path class="cls-1" d="M552,180.25h6.57a12.68,12.68,0,0,1,2.6.25,5.94,5.94,0,0,1,2.14.86,4.39,4.39,0,0,1,1.45,1.65,5.66,5.66,0,0,1,.54,2.62,6.09,6.09,0,0,1-.5,2.6,4.2,4.2,0,0,1-1.38,1.67,5.56,5.56,0,0,1-2.07.89,12.52,12.52,0,0,1-2.6.26h-2.85V198H552Zm3.9,7.5h2.6a4.74,4.74,0,0,0,1-.1,2.74,2.74,0,0,0,.88-.34,1.84,1.84,0,0,0,.62-.65,2,2,0,0,0,.24-1,1.81,1.81,0,0,0-.31-1.09,2.09,2.09,0,0,0-.8-.64,3.43,3.43,0,0,0-1.09-.29c-.4,0-.78-.06-1.15-.06h-2Z"/><path class="cls-1" d="M568.68,180.25h6.85a12.51,12.51,0,0,1,2.57.26,6.21,6.21,0,0,1,2.12.88,4.39,4.39,0,0,1,1.45,1.65,5.55,5.55,0,0,1,.54,2.59,5.17,5.17,0,0,1-1,3.18,4.4,4.4,0,0,1-2.85,1.67l4.5,7.47h-4.67l-3.7-7.07h-1.93V198h-3.9Zm3.9,7.33h2.3c.35,0,.72,0,1.12,0a3.5,3.5,0,0,0,1.06-.23,1.83,1.83,0,0,0,.79-.58,1.87,1.87,0,0,0,.31-1.13,1.79,1.79,0,0,0-.28-1.07,1.74,1.74,0,0,0-.7-.62,3.06,3.06,0,0,0-1-.28,8.09,8.09,0,0,0-1.08-.08h-2.55Z"/><path class="cls-1" d="M586,180.25h12v3.6h-8.12v3.3h7.67v3.6h-7.67v3.6h8.57V198H586Z"/><path class="cls-1" d="M611.23,184.58a2.72,2.72,0,0,0-1.28-.89,4.73,4.73,0,0,0-1.54-.29,3.9,3.9,0,0,0-.88.1,3.6,3.6,0,0,0-.85.31,1.88,1.88,0,0,0-.65.57,1.45,1.45,0,0,0-.25.85,1.4,1.4,0,0,0,.6,1.22,5.82,5.82,0,0,0,1.52.73c.6.2,1.26.4,2,.6a8,8,0,0,1,2,.85,4.21,4.21,0,0,1,2.11,4,5.63,5.63,0,0,1-.55,2.57A5.3,5.3,0,0,1,611.9,197a6.35,6.35,0,0,1-2.18,1.07,9.62,9.62,0,0,1-2.61.35,9.46,9.46,0,0,1-3.2-.52,8,8,0,0,1-2.75-1.7l2.77-3.05a4.06,4.06,0,0,0,1.52,1.23,4.29,4.29,0,0,0,1.88.44,4.65,4.65,0,0,0,1-.11,3.36,3.36,0,0,0,.87-.34,1.93,1.93,0,0,0,.63-.57A1.52,1.52,0,0,0,610,193a1.49,1.49,0,0,0-.61-1.26,5.69,5.69,0,0,0-1.54-.79c-.61-.22-1.28-.43-2-.65a9.68,9.68,0,0,1-2-.87,4.81,4.81,0,0,1-1.53-1.45,4.16,4.16,0,0,1-.62-2.38,5.26,5.26,0,0,1,2.07-4.3,6.46,6.46,0,0,1,2.16-1.09,8.93,8.93,0,0,1,2.52-.36,9.7,9.7,0,0,1,2.9.43,6.56,6.56,0,0,1,2.53,1.42Z"/><path class="cls-1" d="M626.51,184.58a2.8,2.8,0,0,0-1.29-.89,4.64,4.64,0,0,0-1.54-.29,3.81,3.81,0,0,0-.87.1,3.45,3.45,0,0,0-.85.31,1.71,1.71,0,0,0-.65.57,1.38,1.38,0,0,0-.25.85,1.4,1.4,0,0,0,.6,1.22,5.74,5.74,0,0,0,1.51.73c.61.2,1.26.4,2,.6a8,8,0,0,1,2,.85,4.6,4.6,0,0,1,1.51,1.47,4.51,4.51,0,0,1,.6,2.48,5.76,5.76,0,0,1-.55,2.57,5.32,5.32,0,0,1-1.49,1.83,6.3,6.3,0,0,1-2.17,1.07,9.75,9.75,0,0,1-2.62.35,9.5,9.5,0,0,1-3.2-.52,8.1,8.1,0,0,1-2.75-1.7l2.78-3.05a4,4,0,0,0,1.51,1.23,4.36,4.36,0,0,0,1.89.44,4.56,4.56,0,0,0,1-.11,3.29,3.29,0,0,0,.88-.34,2,2,0,0,0,.62-.57,1.45,1.45,0,0,0,.24-.83,1.52,1.52,0,0,0-.61-1.26,5.84,5.84,0,0,0-1.54-.79c-.62-.22-1.29-.43-2-.65a9.24,9.24,0,0,1-2-.87,4.85,4.85,0,0,1-1.54-1.45,4.16,4.16,0,0,1-.61-2.38,5.39,5.39,0,0,1,.56-2.5,5.48,5.48,0,0,1,1.5-1.8,6.66,6.66,0,0,1,2.16-1.09,8.94,8.94,0,0,1,2.53-.36,9.75,9.75,0,0,1,2.9.43,6.59,6.59,0,0,1,2.52,1.42Z"/><path class="cls-1" d="M650.11,184.58a2.8,2.8,0,0,0-1.29-.89,4.64,4.64,0,0,0-1.54-.29,3.81,3.81,0,0,0-.87.1,3.45,3.45,0,0,0-.85.31,1.71,1.71,0,0,0-.65.57,1.38,1.38,0,0,0-.25.85,1.4,1.4,0,0,0,.6,1.22,5.74,5.74,0,0,0,1.51.73c.61.2,1.26.4,2,.6a8,8,0,0,1,2,.85,4.6,4.6,0,0,1,1.51,1.47,4.51,4.51,0,0,1,.6,2.48,5.76,5.76,0,0,1-.55,2.57,5.32,5.32,0,0,1-1.49,1.83,6.26,6.26,0,0,1-2.18,1.07,9.62,9.62,0,0,1-2.61.35,9.5,9.5,0,0,1-3.2-.52,8.1,8.1,0,0,1-2.75-1.7l2.78-3.05a4,4,0,0,0,1.51,1.23,4.36,4.36,0,0,0,1.89.44,4.64,4.64,0,0,0,1-.11,3.29,3.29,0,0,0,.88-.34,2,2,0,0,0,.62-.57,1.45,1.45,0,0,0,.24-.83,1.52,1.52,0,0,0-.61-1.26,5.84,5.84,0,0,0-1.54-.79c-.62-.22-1.29-.43-2-.65a9.24,9.24,0,0,1-2-.87,4.85,4.85,0,0,1-1.54-1.45,4.16,4.16,0,0,1-.61-2.38,5.39,5.39,0,0,1,.56-2.5,5.48,5.48,0,0,1,1.5-1.8,6.66,6.66,0,0,1,2.16-1.09,8.94,8.94,0,0,1,2.53-.36,9.75,9.75,0,0,1,2.9.43,6.59,6.59,0,0,1,2.52,1.42Z"/><path class="cls-1" d="M655.68,189.1a9.89,9.89,0,0,1,.72-3.85,8.38,8.38,0,0,1,2-2.94,8.82,8.82,0,0,1,3-1.86,11.58,11.58,0,0,1,7.65,0,8.87,8.87,0,0,1,3,1.86,8.41,8.41,0,0,1,2,2.94,10.79,10.79,0,0,1,0,7.7,8.41,8.41,0,0,1-2,2.94,8.72,8.72,0,0,1-3,1.86,11.58,11.58,0,0,1-7.65,0,8.67,8.67,0,0,1-3-1.86,8.38,8.38,0,0,1-2-2.94A9.89,9.89,0,0,1,655.68,189.1Zm4.05,0a6.47,6.47,0,0,0,.39,2.29,5.34,5.34,0,0,0,1.11,1.8,5.28,5.28,0,0,0,1.74,1.19,6.32,6.32,0,0,0,4.53,0,5.14,5.14,0,0,0,1.73-1.19,5.21,5.21,0,0,0,1.12-1.8,7,7,0,0,0,0-4.56,5.21,5.21,0,0,0-1.12-1.82,5.11,5.11,0,0,0-1.73-1.18,6.18,6.18,0,0,0-4.53,0,5.26,5.26,0,0,0-1.74,1.18,5.33,5.33,0,0,0-1.11,1.82A6.44,6.44,0,0,0,659.73,189.1Z"/><path class="cls-1" d="M678.51,180.25h3.9v14.1h7.22V198H678.51Z"/><path class="cls-1" d="M707.63,191.13a8.73,8.73,0,0,1-.47,2.9,6.22,6.22,0,0,1-3.75,3.82,9.82,9.82,0,0,1-6.48,0,6.22,6.22,0,0,1-3.75-3.82,8.73,8.73,0,0,1-.47-2.9V180.25h3.9V191a4.19,4.19,0,0,0,.26,1.52,3.61,3.61,0,0,0,.74,1.21,3.22,3.22,0,0,0,1.14.8,3.67,3.67,0,0,0,2.86,0,3.33,3.33,0,0,0,1.12-.8,3.46,3.46,0,0,0,.74-1.21,4.41,4.41,0,0,0,.26-1.52V180.25h3.9Z"/><path class="cls-1" d="M715.56,183.7h-5v-3.45h14v3.45h-5V198h-3.9Z"/><path class="cls-1" d="M727.36,180.25h3.9V198h-3.9Z"/><path class="cls-1" d="M734.78,189.1a10.08,10.08,0,0,1,.71-3.85,8.54,8.54,0,0,1,2-2.94,8.82,8.82,0,0,1,3-1.86,11.58,11.58,0,0,1,7.65,0,8.87,8.87,0,0,1,3,1.86,8.54,8.54,0,0,1,2,2.94,10.79,10.79,0,0,1,0,7.7,8.54,8.54,0,0,1-2,2.94,8.72,8.72,0,0,1-3,1.86,11.58,11.58,0,0,1-7.65,0,8.67,8.67,0,0,1-3-1.86,8.54,8.54,0,0,1-2-2.94A10.08,10.08,0,0,1,734.78,189.1Zm4.05,0a6.47,6.47,0,0,0,.39,2.29,5.34,5.34,0,0,0,1.11,1.8,5.08,5.08,0,0,0,1.74,1.19,6.29,6.29,0,0,0,4.52,0,5.08,5.08,0,0,0,1.74-1.19,5.19,5.19,0,0,0,1.11-1.8,6.86,6.86,0,0,0,0-4.56,5.18,5.18,0,0,0-1.11-1.82,5.06,5.06,0,0,0-1.74-1.18,6.15,6.15,0,0,0-4.52,0,5.06,5.06,0,0,0-1.74,1.18,5.33,5.33,0,0,0-1.11,1.82A6.44,6.44,0,0,0,738.83,189.1Z"/><path class="cls-1" d="M757.46,180.25h5.3l7.52,12.3h.05v-12.3h3.9V198h-5.1l-7.72-12.6h0V198h-3.9Z"/><path class="cls-1" d="M787.51,184.58a2.8,2.8,0,0,0-1.29-.89,4.68,4.68,0,0,0-1.54-.29,3.81,3.81,0,0,0-.87.1,3.45,3.45,0,0,0-.85.31,1.71,1.71,0,0,0-.65.57,1.38,1.38,0,0,0-.25.85,1.4,1.4,0,0,0,.6,1.22,5.74,5.74,0,0,0,1.51.73c.61.2,1.26.4,2,.6a7.81,7.81,0,0,1,2,.85,4.19,4.19,0,0,1,2.12,4,5.76,5.76,0,0,1-.55,2.57,5.44,5.44,0,0,1-1.49,1.83,6.35,6.35,0,0,1-2.18,1.07,9.62,9.62,0,0,1-2.61.35,9.46,9.46,0,0,1-3.2-.52,8.1,8.1,0,0,1-2.75-1.7l2.78-3.05a4,4,0,0,0,1.51,1.23,4.36,4.36,0,0,0,1.89.44,4.64,4.64,0,0,0,1-.11,3.36,3.36,0,0,0,.87-.34,1.93,1.93,0,0,0,.63-.57,1.45,1.45,0,0,0,.24-.83,1.5,1.5,0,0,0-.62-1.26,5.62,5.62,0,0,0-1.53-.79c-.62-.22-1.29-.43-2-.65a9.24,9.24,0,0,1-2-.87,4.85,4.85,0,0,1-1.54-1.45,4.16,4.16,0,0,1-.61-2.38,5.22,5.22,0,0,1,2.06-4.3,6.46,6.46,0,0,1,2.16-1.09,8.94,8.94,0,0,1,2.53-.36,9.75,9.75,0,0,1,2.9.43,6.59,6.59,0,0,1,2.52,1.42Z"/></g></g></svg>