<svg xmlns="http://www.w3.org/2000/svg" viewBox="0 0 857.25 180.04"><defs><style>.cls-1{fill:#fff;}</style></defs><title>Recurso 1Argeflex-B</title><g id="Capa_2" data-name="Capa 2"><g id="Capa_1-2" data-name="Capa 1"><path class="cls-1" d="M207.82,44.1a51.65,51.65,0,0,0-12-6A41.14,41.14,0,0,0,182,35.58a49.45,49.45,0,0,0-15.7,2.71,47.12,47.12,0,0,0-15,8.39c-.41.34-.82.69-1.21,1,0,0-14.22,11.28-14.22,29.43v61.42c0,4.43,2.93,7.52,7.19,7.52s7.11-3.09,7.11-7.52V84.76c0-8.19,1.66-15,5-20.1a29.29,29.29,0,0,1,12.19-11.22,34.8,34.8,0,0,1,15-3.57c6.82,0,13.39,2.7,20.08,8.25A7.44,7.44,0,0,0,207.27,60a7.08,7.08,0,0,0,5.4-2.48,6.21,6.21,0,0,0,1.71-4.38c0-4-3.5-7-6.56-9.08"/><path class="cls-1" d="M513.89,0a38.18,38.18,0,0,0-18.21,4.24,30.4,30.4,0,0,0-12.63,12.89c-2.88,5.49-4.35,12.12-4.35,19.72V138.58c0,4.43,2.93,7.52,7.19,7.52S493,143,493,138.58v-80h18a6.82,6.82,0,0,0,7.19-7.11c0-4-2.95-6.77-7.19-6.77H493V36.85a28.78,28.78,0,0,1,2.42-12.19,16.91,16.91,0,0,1,6.7-7.53,21.9,21.9,0,0,1,11.44-2.75c2.79,0,4.89-.88,6.25-2.63a7.09,7.09,0,0,0,1.6-4.48,8,8,0,0,0-1.13-3.94C519.57,2.08,517.8,0,513.89,0"/><path class="cls-1" d="M543.83,4.5a6.77,6.77,0,0,0-5.72,2.91,8.28,8.28,0,0,0-1.39,4.78v126.3a8.09,8.09,0,0,0,1.46,4.84,7.23,7.23,0,0,0,11.38,0,8.07,8.07,0,0,0,1.46-4.84V12.19a8.37,8.37,0,0,0-1.4-4.8,6.84,6.84,0,0,0-5.79-2.89"/><path class="cls-1" d="M857.24,133.41v-.07q0-.63,0-1.44a16.9,16.9,0,0,0-.82-4.82l0,0a15.92,15.92,0,0,0-14.15-10.59H841l-.12,0a14.84,14.84,0,1,0,8,27.86l.21-.12.18-.11a4.35,4.35,0,0,0,2-3.16,4.33,4.33,0,0,0-3.78-4.8,4.36,4.36,0,0,0-.51,0,4.66,4.66,0,0,0-1.94.47,11.12,11.12,0,0,1-3.27.92,6.22,6.22,0,1,1,0-12.43,7.47,7.47,0,0,1,4.16,1.45,1.54,1.54,0,0,0,2.4-.61,1.52,1.52,0,0,0,.12-.59,1.53,1.53,0,0,0-.56-1.18l-.08-.06,0,0,0,0a10.15,10.15,0,0,0-6-2,9.3,9.3,0,1,0,0,18.59,10.16,10.16,0,0,0,1.23-.08,11.11,11.11,0,0,0,3.07-1l.4-.17.09,0h0l.08,0h.17a1.31,1.31,0,0,1,.28,0,1.24,1.24,0,0,1,.85.49,1.13,1.13,0,0,1,.23.88,1.59,1.59,0,0,1-.8,1,10,10,0,0,1-3.47,1.25,12.17,12.17,0,0,1-2.17.2,11.76,11.76,0,0,1-.14-23.51,12.74,12.74,0,0,1,12.11,9.34v0a1.69,1.69,0,0,1,0,.24,17.53,17.53,0,0,1,.35,3.45v12a1.55,1.55,0,1,0,3.09,0Z"/><path class="cls-1" d="M100.81,53.51Q99.2,51.67,97.43,50A60.16,60.16,0,0,0,79,37.67a54.46,54.46,0,0,0-49.75,3.46A61,61,0,0,0,8.07,62.21,55,55,0,0,0,0,91a54.38,54.38,0,0,0,8.08,28.7,60.63,60.63,0,0,0,21.19,20.86,54.8,54.8,0,0,0,28.08,7.79A55.59,55.59,0,0,0,79.06,144a59.6,59.6,0,0,0,18.4-12.15q1.76-1.69,3.35-3.5v10.17c0,4.48,2.92,7.61,7.11,7.61H108c4.18,0,7.11-3.13,7.11-7.61V91c.85-20.5-14.3-37.49-14.3-37.49m-43.55-6a40.82,40.82,0,0,1,20.83,5.91,48,48,0,0,1,16.5,16.09A39.33,39.33,0,0,1,100.81,91a41.13,41.13,0,0,1-5.89,21.42,44.49,44.49,0,0,1-16,15.79,42.44,42.44,0,0,1-21.64,5.84,40.51,40.51,0,0,1-20.89-5.86A46.32,46.32,0,0,1,20.29,112.3a40.32,40.32,0,0,1-6-21.3,41.3,41.3,0,0,1,6-21.61,46,46,0,0,1,16.06-16,40.51,40.51,0,0,1,20.89-5.86"/><path class="cls-1" d="M652.7,41.41a56.1,56.1,0,0,0-57.86-.27,58.81,58.81,0,0,0-20.78,21.14,56.73,56.73,0,0,0-7.74,28.81,55.7,55.7,0,0,0,7.76,28.66,58.09,58.09,0,0,0,20.84,20.85,58,58,0,0,0,50.24,3.71,66.08,66.08,0,0,0,17.4-10.7l.14-.12a7.63,7.63,0,0,0,2.57-5.66,6.56,6.56,0,0,0-1.92-4.68l-.17-.17c-2.52-2.53-6.91-2.41-9.69-.13a90.52,90.52,0,0,1-8.34,5.93,37.85,37.85,0,0,1-9,3.81,43.91,43.91,0,0,1-12.59,1.63,41.33,41.33,0,0,1-21.43-5.86,44.17,44.17,0,0,1-15.75-15.86,41.81,41.81,0,0,1-5.59-17.22H674a6.84,6.84,0,0,0,7.19-7.11v-.33c0-8.64-2.59-17.31-7.7-25.76A61.43,61.43,0,0,0,652.7,41.41M581.8,81.07A43.58,43.58,0,0,1,588,67a44.93,44.93,0,0,1,15.43-14.22,41.37,41.37,0,0,1,41.41.7,48,48,0,0,1,15.68,15.17,41.77,41.77,0,0,1,5.52,12.45Z"/><path class="cls-1" d="M434.92,41.41a56.12,56.12,0,0,0-57.87-.27,58.7,58.7,0,0,0-20.77,21.14,56.63,56.63,0,0,0-7.74,28.81,55.78,55.78,0,0,0,7.75,28.66,58.11,58.11,0,0,0,20.85,20.85,58,58,0,0,0,50.23,3.71,66.14,66.14,0,0,0,17.41-10.7l.13-.12a7.63,7.63,0,0,0,2.57-5.66,6.56,6.56,0,0,0-1.92-4.68l-.17-.17c-2.52-2.53-6.91-2.41-9.69-.13a89.19,89.19,0,0,1-8.34,5.93,37.94,37.94,0,0,1-9,3.81,44,44,0,0,1-12.6,1.63,41.35,41.35,0,0,1-21.43-5.86,44.14,44.14,0,0,1-15.74-15.86A41.68,41.68,0,0,1,363,95.28h93.18a6.84,6.84,0,0,0,7.19-7.11v-.33c0-8.64-2.59-17.31-7.7-25.76a61.52,61.52,0,0,0-20.78-20.67M364,81.07A43.39,43.39,0,0,1,370.26,67a44.81,44.81,0,0,1,15.42-14.22,41.37,41.37,0,0,1,41.41.7,48.1,48.1,0,0,1,15.69,15.17,41.73,41.73,0,0,1,5.51,12.45Z"/><line class="cls-1" x1="776.3" y1="153.18" x2="478.7" y2="153.18"/><path class="cls-1" d="M307.89,118.65a42.68,42.68,0,0,1-32.1,13.82c-1.27,0-2.52-.07-3.77-.16-1.47.09-2.94.16-4.43.16a65.45,65.45,0,0,1-43.2-16.22c.61,1.16,1.26,2.3,2,3.41a56.13,56.13,0,0,0,21.37,20,60.6,60.6,0,0,0,50.2,2.93A55.56,55.56,0,0,0,316,131c.92-.89,1.8-1.8,2.65-2.74a50.68,50.68,0,0,1-3.2,12.73,44.15,44.15,0,0,1-9.52,15,28.89,28.89,0,0,1-12.22,7.68,45,45,0,0,1-12.62,1.55A59.24,59.24,0,0,1,269.38,164a38.62,38.62,0,0,1-9.8-3.23c-3.85-1.77-7.24-1-9.46,1.76l-.29.39a6.31,6.31,0,0,0-1.31,4c0,3.74,2.71,6.64,8.06,8.6a63.66,63.66,0,0,0,12.49,3,83.73,83.73,0,0,0,12.14,1.05,61.05,61.05,0,0,0,8.28-.54,45,45,0,0,0,21.79-9.2,55.12,55.12,0,0,0,16-20.21,65,65,0,0,0,6-28.31V66.76a65.58,65.58,0,0,1-25.41,51.89"/><path class="cls-1" d="M326.11,34.24a8.58,8.58,0,0,0-1.35.12,7,7,0,0,0-4.08,2.23,7.62,7.62,0,0,0-1.84,5.18V53.15q-1.6-1.8-3.37-3.49a61,61,0,0,0-18.28-12,54.31,54.31,0,0,0-21.31-4.39A55.79,55.79,0,0,0,247.34,41a60,60,0,0,0-21.15,20.79,53.77,53.77,0,0,0-8,28.27,55.49,55.49,0,0,0,6.19,26.16,65.45,65.45,0,0,0,43.2,16.22c1.49,0,3-.07,4.43-.16a46.41,46.41,0,0,1-17.56-4.94,40.34,40.34,0,0,1-15.93-14.6c-4-6.31-6-13.94-6-22.68A41.55,41.55,0,0,1,238.17,69a42.86,42.86,0,0,1,37.62-21.41,40.14,40.14,0,0,1,19.83,5.25,47.08,47.08,0,0,1,15.72,14.29,43.17,43.17,0,0,1,7.5,18.83v8.51a42,42,0,0,1-6.85,19,43.54,43.54,0,0,1-4.1,5.21,65.59,65.59,0,0,0,25.42-51.89v-25c0-4.43-3-7.53-7.2-7.53"/><path class="cls-1" d="M747.78,141.79a54.28,54.28,0,1,1,54.27-54.28,54.34,54.34,0,0,1-54.27,54.28m0-104.83a50.56,50.56,0,1,0,50.55,50.55A50.61,50.61,0,0,0,747.78,37"/><path class="cls-1" d="M747.78,117.93a30.42,30.42,0,1,1,30.41-30.42,30.45,30.45,0,0,1-30.41,30.42m0-57.12a26.7,26.7,0,1,0,26.7,26.7,26.73,26.73,0,0,0-26.7-26.7"/><path class="cls-1" d="M698.62,136.67h0a1.87,1.87,0,0,1,0-2.63L794.3,38.36A1.86,1.86,0,1,1,796.93,41l-95.68,95.68a1.87,1.87,0,0,1-2.63,0"/><path class="cls-1" d="M698.62,136.67h0a1.87,1.87,0,0,1,0-2.63L794.3,38.36A1.86,1.86,0,1,1,796.93,41l-95.68,95.68A1.87,1.87,0,0,1,698.62,136.67Z"/><path class="cls-1" d="M830.53,172.88,697.06,39.41a1.86,1.86,0,0,1,2.63-2.63L833.16,170.25a1.86,1.86,0,1,1-2.63,2.63"/><path class="cls-1" d="M830.53,172.88,697.06,39.41a1.86,1.86,0,0,1,2.63-2.63L833.16,170.25a1.86,1.86,0,1,1-2.63,2.63Z"/><path class="cls-1" d="M478.71,161.89h6.57a13.49,13.49,0,0,1,2.6.25A6,6,0,0,1,490,163a4.24,4.24,0,0,1,1.45,1.65,5.61,5.61,0,0,1,.54,2.61,6.09,6.09,0,0,1-.5,2.6,4.21,4.21,0,0,1-1.38,1.67,5.4,5.4,0,0,1-2.07.89,11.87,11.87,0,0,1-2.6.26h-2.85v6.9h-3.9Zm3.9,7.5h2.6a4.81,4.81,0,0,0,1-.1,2.67,2.67,0,0,0,.87-.33,1.87,1.87,0,0,0,.63-.65,2.08,2.08,0,0,0,.24-1,1.76,1.76,0,0,0-.32-1.09,2,2,0,0,0-.8-.64,3.3,3.3,0,0,0-1.08-.28,9.32,9.32,0,0,0-1.15-.07h-2Z"/><path class="cls-1" d="M495.38,161.89h6.85a11.69,11.69,0,0,1,2.56.27,6,6,0,0,1,2.13.87,4.39,4.39,0,0,1,1.45,1.65,5.55,5.55,0,0,1,.54,2.59,5.22,5.22,0,0,1-1,3.19,4.43,4.43,0,0,1-2.85,1.66l4.5,7.47h-4.67l-3.7-7.07h-1.93v7.07h-3.9Zm3.9,7.33h2.3c.35,0,.72,0,1.11,0a3.5,3.5,0,0,0,1.07-.22,1.91,1.91,0,0,0,.78-.59,1.79,1.79,0,0,0,.32-1.13,1.86,1.86,0,0,0-.28-1.07,1.79,1.79,0,0,0-.7-.61,2.9,2.9,0,0,0-1-.29,8.09,8.09,0,0,0-1.08-.08h-2.55Z"/><path class="cls-1" d="M512.66,161.89h12v3.6h-8.12v3.3h7.67v3.6h-7.67V176h8.57v3.6H512.66Z"/><path class="cls-1" d="M537.51,161.89h6.57a13.49,13.49,0,0,1,2.6.25,6,6,0,0,1,2.14.87,4.24,4.24,0,0,1,1.45,1.65,5.62,5.62,0,0,1,.53,2.61,5.94,5.94,0,0,1-.5,2.6,4.19,4.19,0,0,1-1.37,1.67,5.4,5.4,0,0,1-2.07.89,11.94,11.94,0,0,1-2.6.26h-2.85v6.9h-3.9Zm3.9,7.5H544a4.81,4.81,0,0,0,1-.1,2.76,2.76,0,0,0,.87-.33,1.87,1.87,0,0,0,.63-.65,2.08,2.08,0,0,0,.24-1,1.76,1.76,0,0,0-.32-1.09,2.11,2.11,0,0,0-.8-.64,3.29,3.29,0,0,0-1.09-.28,9.05,9.05,0,0,0-1.14-.07h-2Z"/><path class="cls-1" d="M554.18,161.89H561a11.75,11.75,0,0,1,2.56.27,6,6,0,0,1,2.13.87,4.39,4.39,0,0,1,1.45,1.65,5.55,5.55,0,0,1,.54,2.59,5.22,5.22,0,0,1-1,3.19,4.43,4.43,0,0,1-2.85,1.66l4.5,7.47h-4.67l-3.7-7.07h-1.93v7.07h-3.9Zm3.9,7.33h2.3c.35,0,.72,0,1.11,0a3.44,3.44,0,0,0,1.06-.22,1.94,1.94,0,0,0,.79-.59,1.79,1.79,0,0,0,.32-1.13,1.86,1.86,0,0,0-.28-1.07,1.79,1.79,0,0,0-.7-.61,2.9,2.9,0,0,0-1-.29,8.09,8.09,0,0,0-1.08-.08h-2.55Z"/><path class="cls-1" d="M571.46,161.89h12v3.6h-8.13v3.3H583v3.6h-7.68V176h8.58v3.6H571.46Z"/><path class="cls-1" d="M596.73,166.22a2.8,2.8,0,0,0-1.29-.89,4.64,4.64,0,0,0-1.54-.29,4.47,4.47,0,0,0-.87.1,3.23,3.23,0,0,0-.85.32,1.77,1.77,0,0,0-.65.56,1.38,1.38,0,0,0-.25.85,1.4,1.4,0,0,0,.6,1.22,5.45,5.45,0,0,0,1.51.73c.61.2,1.26.4,2,.6a8,8,0,0,1,2,.85,4.61,4.61,0,0,1,1.51,1.47,4.51,4.51,0,0,1,.6,2.48,5.63,5.63,0,0,1-.55,2.57,5.23,5.23,0,0,1-1.49,1.83,6.3,6.3,0,0,1-2.17,1.07,9.37,9.37,0,0,1-2.62.35,9.55,9.55,0,0,1-3.2-.52,8.2,8.2,0,0,1-2.75-1.7l2.78-3a4.15,4.15,0,0,0,1.51,1.24,4.35,4.35,0,0,0,1.89.43,3.93,3.93,0,0,0,1-.11,3,3,0,0,0,.88-.34,1.89,1.89,0,0,0,.62-.57,1.45,1.45,0,0,0,.24-.83,1.49,1.49,0,0,0-.61-1.26,5.69,5.69,0,0,0-1.54-.79c-.62-.21-1.28-.43-2-.65a9,9,0,0,1-2-.87,4.85,4.85,0,0,1-1.54-1.45,4.14,4.14,0,0,1-.61-2.38,5.39,5.39,0,0,1,.56-2.5,5.69,5.69,0,0,1,1.5-1.8,6.59,6.59,0,0,1,2.17-1.08,8.49,8.49,0,0,1,2.52-.37,10,10,0,0,1,2.9.43,6.73,6.73,0,0,1,2.52,1.42Z"/><path class="cls-1" d="M612,166.22a2.72,2.72,0,0,0-1.28-.89,4.68,4.68,0,0,0-1.54-.29,4.57,4.57,0,0,0-.88.1,3.23,3.23,0,0,0-.85.32,1.85,1.85,0,0,0-.65.56,1.45,1.45,0,0,0-.25.85,1.4,1.4,0,0,0,.6,1.22,5.52,5.52,0,0,0,1.52.73c.6.2,1.26.4,2,.6a8,8,0,0,1,2,.85,4.61,4.61,0,0,1,1.51,1.47,4.51,4.51,0,0,1,.6,2.48,5.63,5.63,0,0,1-.55,2.57,5.2,5.2,0,0,1-1.48,1.83,6.35,6.35,0,0,1-2.18,1.07,9.25,9.25,0,0,1-2.61.35,9.46,9.46,0,0,1-3.2-.52,8.1,8.1,0,0,1-2.75-1.7l2.77-3a4.18,4.18,0,0,0,1.52,1.24,4.31,4.31,0,0,0,1.88.43,4.07,4.07,0,0,0,1-.11,3,3,0,0,0,.87-.34,1.93,1.93,0,0,0,.63-.57,1.52,1.52,0,0,0,.23-.83,1.49,1.49,0,0,0-.61-1.26,5.69,5.69,0,0,0-1.54-.79c-.61-.21-1.28-.43-2-.65a9.17,9.17,0,0,1-2-.87,4.81,4.81,0,0,1-1.53-1.45,4.14,4.14,0,0,1-.62-2.38,5.27,5.27,0,0,1,.57-2.5,5.44,5.44,0,0,1,1.5-1.8,6.45,6.45,0,0,1,2.16-1.08,8.59,8.59,0,0,1,2.52-.37,10,10,0,0,1,2.9.43,6.69,6.69,0,0,1,2.53,1.42Z"/><path class="cls-1" d="M635.6,166.22a2.72,2.72,0,0,0-1.28-.89,4.73,4.73,0,0,0-1.54-.29,4.57,4.57,0,0,0-.88.1,3.23,3.23,0,0,0-.85.32,1.85,1.85,0,0,0-.65.56,1.45,1.45,0,0,0-.25.85,1.4,1.4,0,0,0,.6,1.22,5.52,5.52,0,0,0,1.52.73c.6.2,1.26.4,2,.6a8,8,0,0,1,2,.85,4.61,4.61,0,0,1,1.51,1.47,4.51,4.51,0,0,1,.6,2.48,5.63,5.63,0,0,1-.55,2.57,5.2,5.2,0,0,1-1.48,1.83,6.35,6.35,0,0,1-2.18,1.07,9.25,9.25,0,0,1-2.61.35,9.46,9.46,0,0,1-3.2-.52,8.1,8.1,0,0,1-2.75-1.7l2.77-3a4.18,4.18,0,0,0,1.52,1.24,4.31,4.31,0,0,0,1.88.43,4.07,4.07,0,0,0,1-.11,3,3,0,0,0,.87-.34,1.93,1.93,0,0,0,.63-.57,1.52,1.52,0,0,0,.23-.83,1.49,1.49,0,0,0-.61-1.26,5.69,5.69,0,0,0-1.54-.79c-.61-.21-1.28-.43-2-.65a9.17,9.17,0,0,1-2-.87,4.81,4.81,0,0,1-1.53-1.45,4.14,4.14,0,0,1-.62-2.38,5.27,5.27,0,0,1,.57-2.5,5.44,5.44,0,0,1,1.5-1.8,6.45,6.45,0,0,1,2.16-1.08,8.59,8.59,0,0,1,2.52-.37,10,10,0,0,1,2.9.43,6.69,6.69,0,0,1,2.53,1.42Z"/><path class="cls-1" d="M641.18,170.74a10.12,10.12,0,0,1,.71-3.85,8.41,8.41,0,0,1,2-2.93,8.89,8.89,0,0,1,3-1.87,11.58,11.58,0,0,1,7.65,0,8.84,8.84,0,0,1,3,1.87,8.41,8.41,0,0,1,2,2.93,10.79,10.79,0,0,1,0,7.7,8.54,8.54,0,0,1-2,2.94,8.67,8.67,0,0,1-3,1.86,11.58,11.58,0,0,1-7.65,0,8.72,8.72,0,0,1-3-1.86,8.54,8.54,0,0,1-2-2.94A10.08,10.08,0,0,1,641.18,170.74Zm4.05,0a6.44,6.44,0,0,0,.39,2.29,5.34,5.34,0,0,0,1.11,1.8,5.08,5.08,0,0,0,1.74,1.19,6.29,6.29,0,0,0,4.52,0,5.08,5.08,0,0,0,1.74-1.19,5.34,5.34,0,0,0,1.11-1.8,6.86,6.86,0,0,0,0-4.56,5.2,5.2,0,0,0-1.11-1.81,5,5,0,0,0-1.74-1.19,6.15,6.15,0,0,0-4.52,0,5,5,0,0,0-1.74,1.19,5.2,5.2,0,0,0-1.11,1.81A6.48,6.48,0,0,0,645.23,170.74Z"/><path class="cls-1" d="M664,161.89h3.9V176h7.23v3.6H664Z"/><path class="cls-1" d="M693.13,172.77a8.48,8.48,0,0,1-.48,2.9,6.22,6.22,0,0,1-3.75,3.82,9.79,9.79,0,0,1-6.47,0,6.46,6.46,0,0,1-2.34-1.52,6.52,6.52,0,0,1-1.41-2.3,8.48,8.48,0,0,1-.48-2.9V161.89h3.9v10.73a4.15,4.15,0,0,0,.27,1.52,3.74,3.74,0,0,0,.73,1.22,3.43,3.43,0,0,0,2.58,1.08,3.39,3.39,0,0,0,2.55-1.08,3.76,3.76,0,0,0,.74-1.22,4.37,4.37,0,0,0,.26-1.52V161.89h3.9Z"/><path class="cls-1" d="M701.05,165.34h-5v-3.45h14v3.45h-5v14.25h-3.9Z"/><path class="cls-1" d="M712.85,161.89h3.9v17.7h-3.9Z"/><path class="cls-1" d="M720.28,170.74a10.12,10.12,0,0,1,.71-3.85,8.41,8.41,0,0,1,2-2.93,8.89,8.89,0,0,1,3-1.87,11.58,11.58,0,0,1,7.65,0,8.84,8.84,0,0,1,3,1.87,8.41,8.41,0,0,1,2,2.93,10.79,10.79,0,0,1,0,7.7,8.54,8.54,0,0,1-2,2.94,8.67,8.67,0,0,1-3,1.86,11.58,11.58,0,0,1-7.65,0,8.72,8.72,0,0,1-3-1.86,8.54,8.54,0,0,1-2-2.94A10.08,10.08,0,0,1,720.28,170.74Zm4.05,0a6.44,6.44,0,0,0,.39,2.29,5.08,5.08,0,0,0,2.85,3,6.29,6.29,0,0,0,4.52,0,5.18,5.18,0,0,0,1.74-1.19,5.34,5.34,0,0,0,1.11-1.8,6.86,6.86,0,0,0,0-4.56,5.2,5.2,0,0,0-1.11-1.81,5,5,0,0,0-1.74-1.19,6.15,6.15,0,0,0-4.52,0,5.06,5.06,0,0,0-2.85,3A6.48,6.48,0,0,0,724.33,170.74Z"/><path class="cls-1" d="M743,161.89h5.3l7.53,12.3h.05v-12.3h3.9v17.7h-5.1L746.9,167h0v12.6H743Z"/><path class="cls-1" d="M773,166.22a2.72,2.72,0,0,0-1.28-.89,4.73,4.73,0,0,0-1.54-.29,4.48,4.48,0,0,0-.88.1,3.23,3.23,0,0,0-.85.32,1.85,1.85,0,0,0-.65.56,1.45,1.45,0,0,0-.25.85,1.4,1.4,0,0,0,.6,1.22,5.52,5.52,0,0,0,1.52.73c.6.2,1.26.4,2,.6a8,8,0,0,1,2,.85,4.61,4.61,0,0,1,1.51,1.47,4.51,4.51,0,0,1,.6,2.48,5.63,5.63,0,0,1-.55,2.57,5.2,5.2,0,0,1-1.48,1.83,6.44,6.44,0,0,1-2.18,1.07,9.3,9.3,0,0,1-2.61.35,9.46,9.46,0,0,1-3.2-.52,8,8,0,0,1-2.75-1.7l2.77-3a4.18,4.18,0,0,0,1.52,1.24,4.27,4.27,0,0,0,1.88.43,3.93,3.93,0,0,0,1-.11,3,3,0,0,0,.88-.34,1.8,1.8,0,0,0,.62-.57,1.45,1.45,0,0,0,.24-.83,1.49,1.49,0,0,0-.61-1.26,5.69,5.69,0,0,0-1.54-.79c-.61-.21-1.28-.43-2-.65a9.17,9.17,0,0,1-2-.87,5,5,0,0,1-1.54-1.45,4.22,4.22,0,0,1-.61-2.38,5.39,5.39,0,0,1,.56-2.5,5.69,5.69,0,0,1,1.5-1.8,6.59,6.59,0,0,1,2.17-1.08,8.54,8.54,0,0,1,2.52-.37,10,10,0,0,1,2.9.43,6.69,6.69,0,0,1,2.53,1.42Z"/></g></g></svg>